#!OML:ASF E:/inclinewalkrobotboard/Project1/Captureday1/Session1/subject1.ASF
:FULLY-SPECIFIED
:DEGREES
388
root 0 0 0 2.0789441719558406 -9.331445206173973 1.5832621667062996
lowerback 0.8236262916226322 -1.6812051688748064 -3.3505048092423784
upperback -0.6059962708483112 -2.175987787823045 2.4425575367196317
thorax -0.8248817813709983 -1.0599562720611897 4.369106601813353
lowerneck -31.79433090269054 -2.4081558922736317 -7.537969210317529
upperneck 4.8334563142658755 -1.1923601455058452 5.75924824475085
head 6.219791100086194 -0.03633936869546455 2.9089700265326446
rclavicle -3.211723807714172E-16 -3.316815497090476E-15
rhumerus -32.59853441169471 -4.954727021163663 -79.95009075764388
rradius 29.819989724038724
rwrist 18.58601144196659
rhand -17.622274422103974 9.926578087723822
rfingers 7.125019999999945
rthumb 8.62744397170872 -19.937494987304834
lclavicle -5.698297189142873E-16 -1.6544170282356182E-15
lhumerus -9.691945051335088 6.959395119710547 88.3877038555708
lradius 61.7889115060862
lwrist -4.601899700482923
lhand -33.463397855289614 18.016225480616406
lfingers 7.125020000000004
lthumb -6.6509608077727895 47.674039669971535
rfemur -34.4172249798846 4.409080724874013 17.506839215162326
rtibia 24.13471206426322
rfoot -5.6201570658991455 -12.562293693681088
rtoes -6.531331014873006
lfemur 19.182527713697237 -3.583620873312716 -28.87779241533356
ltibia 24.003786861605818
lfoot -10.722787817623532 -7.983736685455073
ltoes -11.884206950217868
389
root 0 0 0 2.1648241581831593 -9.429404352670543 1.6669402066086214
lowerback 0.7575779843003332 -1.7374412864766877 -3.3920293289864043
upperback -0.547183571098565 -2.2591405041405044 2.475936360791655
thorax -0.7225000990342216 -1.1031681001473017 4.423280915183455
lowerneck -32.44020079999397 -2.4285299664716353 -7.5552899945274845
upperneck 4.073642249437546 -1.1778221097271917 5.835381765021165
head 6.0402878140854295 0.0028845905133140504 2.928656825931868
rclavicle -1.4483188853982961E-15 -3.967918780695862E-15
rhumerus -32.7158690621751 -5.036705535249004 -79.87475926450736
rradius 29.767258184210714
rwrist 18.7593187350681
rhand -17.572144866742146 9.81875723908928
rfingers 7.125019999999948
rthumb 8.674646925424776 -20.05934749788905
lclavicle -1.14089312378763E-15 -1.7983461376518964E-15
lhumerus -9.09680493493051 7.087021433431167 87.94015526714345
lradius 62.04978317685714
lwrist -4.742990459457838
lhand -33.578354784281146 17.991519593192045
lfingers 7.125020000000004
lthumb -6.7582159449063 47.64579866032999
rfemur -34.56350286525512 4.875805395669167 18.12382473053368
rtibia 22.40050616665329
rfoot -4.872968999110913 -12.197692618909574
rtoes -4.416969423923648
lfemur 19.699268310915453 -2.7067200123423873 -26.66967518470303
ltibia 32.53227275912366
lfoot -5.075863430269215 -11.654454362725684
ltoes -16.199588400788247
390
root 0 0 0 2.180466518183221 -9.458793171513467 1.6871603185678605
lowerback 0.7686466344399738 -1.7577428515475435 -3.3867872421287553
upperback -0.5155827581017731 -2.288578410401473 2.487624343034803
thorax -0.69596027950663 -1.1195902124889674 4.428843353368118
lowerneck -32.67115327178321 -2.4271457166213115 -7.525846843507463
upperneck 3.8548865288958556 -1.1554733375965933 5.810715270098749
head 5.992526847286948 0.019005730900714585 2.9149099355696535
rclavicle -2.6972125965333155E-15 -4.265617749617663E-15
rhumerus -32.82579403317084 -5.232263595666726 -79.84839488939043
rradius 29.73941231476167
rwrist 18.92397762735107
rhand -17.50468876750603 9.709130120021879
rfingers 7.12501999999995
rthumb 8.739150756417526 -20.1801243835246
lclavicle -1.1659137581969919E-15 -1.937229738772333E-15
lhumerus -8.872897916985531 7.4507028874152015 87.8330913632002
lradius 61.95718783486479
lwrist -4.886249959870083
lhand -33.64700943646111 17.88860571747832
lfingers 7.125020000000004
lthumb -6.823873340073825 47.538457469615004
rfemur -32.78082450677196 5.752908948325567 21.01633006009447
rtibia 20.087594526433058
rfoot -4.377495077793151 -11.33146389403031
rtoes 0.7939249296187114
lfemur 13.441950541703632 -1.5969910702217098 -22.59682867452334
ltibia 41.65651180514858
lfoot 2.4510537415816476 -14.804433659152872
ltoes -17.024418249599204
391
root 0 0 0 2.109024246946833 -9.418776637096956 1.6334442852218043
lowerback 0.8725768052071199 -1.7424107365282535 -3.3187451212785857
upperback -0.5080857364542268 -2.2639660066851515 2.472025921688674
thorax -0.7526972084154724 -1.1084287751536603 4.370725922096812
lowerneck -32.49194271410448 -2.412609973966788 -7.429487532347171
upperneck 4.2359566856714785 -1.1300678392461772 5.647345457213234
head 6.098036783741154 0.004755021898096692 2.8502153466078206
rclavicle -3.33374911327057E-15 -4.185370787647977E-15
rhumerus -32.89796053083319 -5.507928124706401 -79.8896075683987
rradius 29.749559146381237
rwrist 19.042271378915885
rhand -17.434598749395228 9.622074625049235
rfingers 7.125019999999952
rthumb 8.807124016560923 -20.26951967631825
lclavicle -5.243917118327132E-16 -2.099863074987581E-15
lhumerus -9.42446476696458 8.022409482825239 88.36417634714068
lradius 61.312627561976505
lwrist -4.96349550400261
lhand -33.602305100314936 17.68677142998648
lfingers 7.1250200000000055
lthumb -6.782457786275848 47.33390746424391
rfemur -23.411659760020434 6.941012155667076 28.16030553822665
rtibia 20.32427351300051
rfoot -4.432272865260106 -9.346332374741323
rtoes 8.284503098740254
lfemur 4.0589548721285915 -0.757434168932094 -19.053130928199682
ltibia 48.6157771875926
lfoot 8.266724398984584 -15.822770534520812
ltoes -13.424184117184248
392
root 0 0 0 1.9693890490214363 -9.328731956817464 1.520286333333106
lowerback 1.0249465218225318 -1.6903573702065584 -3.2129627752300114
upperback -0.5486294922671164 -2.184116999509405 2.4339431953878203
thorax -0.8888510556254026 -1.0688589021383386 4.271502343085286
lowerneck -31.85510943337877 -2.364486351755831 -7.305551431934659
upperneck 5.23007656012458 -1.0773176760221383 5.379995406943696
head 6.36037080890703 -0.029195693012762328 2.757742610529276
rclavicle -3.834394367661089E-15 -3.711908776849994E-15
rhumerus -32.92440327322435 -5.734348563889613 -79.99729952018089
rradius 29.80830584677186
rwrist 19.14774704161607
rhand -17.37932471787159 9.52716703899717
rfingers 7.125019999999954
rthumb 8.862163458325204 -20.34598179085608
lclavicle -5.359158710410816E-16 -1.9919212322719068E-15
lhumerus -9.779053014164989 8.790069204043434 88.86270043508354
lradius 60.68535171160168
lwrist -5.15221071937159
lhand -33.63566573127737 17.422001968690573
lfingers 7.125020000000008
lthumb -6.816937503728031 47.06098303388096
rfemur -13.342471383570317 7.473502957068312 33.65425579616362
rtibia 24.360863283441326
rfoot -6.062119528395456 -7.105229763712092
rtoes 13.38054469792432
lfemur -5.936177756371973 0.1533269537856139 -16.795085956921657
ltibia 54.31060213864352
lfoot 8.235411168065488 -13.777006473606592
ltoes -8.597020021207676
393
root 0 0 0 1.8108796523964559 -9.197245660317474 1.3785915178426078
lowerback 1.1651819250200388 -1.6013698875105948 -3.117845073783455
upperback -0.6499749293568688 -2.051340667435812 2.3859644949820895
thorax -1.0780115939443502 -1.002540398216213 4.173801975708874
lowerneck -30.742057100028447 -2.2660428188220547 -7.223909701185342
upperneck 6.708430855397495 -0.991384292263252 5.121442573154615
head 6.732083069812739 -0.06751499625946347 2.6893266917576364
rclavicle -4.324669351273747E-15 -2.673531654467538E-15
rhumerus -32.906161079473655 -5.766349974147743 -80.15766739590993
rradius 29.922574997004475
rwrist 19.27013528283285
rhand -17.357481579366514 9.391629706740739
rfingers 7.1250199999999575
rthumb 8.88593102194143 -20.44481128444119
lclavicle -1.1231406536007929E-15 -1.627583476523369E-15
lhumerus -9.569797007204183 9.351260757251833 88.91328737444732
lradius 60.48853850902495
lwrist -5.3906295517310205
lhand -33.76448732906235 17.240057487621744
lfingers 7.12502000000001
lthumb -6.942344512012979 46.86864344055851
rfemur -7.1313221226814925 7.77877982607361 35.60624212467044
rtibia 26.71967982885503
rfoot -10.693248792801349 -6.243617484722047
rtoes 14.219143821431862
lfemur -15.032698115096075 1.7163923038700926 -14.418583182294551
ltibia 57.89328502553476
lfoot 3.941199027409235 -9.8785918261256
ltoes -7.884086212959228
394
root 0 0 0 1.6598758628088 -9.03567779602885 1.2293433113098846
lowerback 1.2773511455671964 -1.4901506326602227 -3.049196201447607
upperback -0.7884844197706073 -1.888191976113732 2.3353338553073293
thorax -1.2871893216202543 -0.9207619241122668 4.090522911636959
lowerneck -29.34450550682581 -2.1391097512375246 -7.193985922489494
upperneck 8.416760988714277 -0.8978695528375492 4.9224964779252325
head 7.145108469309694 -0.10604986268982236 2.6571453628506405
rclavicle -4.626220682968806E-15 -1.1570847650278389E-15
rhumerus -32.797850862357336 -5.487553014483796 -80.34604249825011
rradius 30.08334993982425
rwrist 19.301494215342515
rhand -17.407918536186628 9.291866823317468
rfingers 7.125019999999961
rthumb 8.839906199372631 -20.509726165824354
lclavicle -1.7768030234405575E-15 -1.0758966790114502E-15
lhumerus -9.221339602525603 9.526720587622293 88.77459715488517
lradius 60.599021842621255
lwrist -5.5496057979427045
lhand -33.88953702158447 17.178110809617174
lfingers 7.125020000000011
lthumb -7.064642562746848 46.799867939517085
rfemur -0.3789821039695713 8.446915244492622 37.30317748360983
rtibia 24.993034044361085
rfoot -16.811330882221267 -6.393368728537459
rtoes 11.678053578390639
lfemur -19.81911870512604 2.8920358525747347 -13.324887368645921
ltibia 59.55696686179634
lfoot -0.17732461836058988 -7.221033692581463
ltoes -8.257142942585379
395
root 0 0 0 1.53017041196407 -8.882069770348647 1.0935764591576969
lowerback 1.3599632270382949 -1.383229920893971 -3.0038134707339967
upperback -0.9255739245973574 -1.7325058153922237 2.289541205874
thorax -1.479357400701202 -0.842751096925373 4.023784638357239
lowerneck -28.00292818669673 -2.018676253734942 -7.193997673628827
upperneck 9.992152750404955 -0.8163866766761153 4.777828014719503
head 7.518195977678626 -0.14012639974846264 2.6452912405392364
rclavicle -4.331529240341529E-15 1.4174838827743788E-16
rhumerus -32.51702680325397 -4.801019325227653 -80.54573833101952
rradius 30.285150584527
rwrist 19.04852542145524
rhand -17.584152379573467 9.36825978549213
rfingers 7.12501999999996
rthumb 8.671961417849051 -20.420981368503213
lclavicle -2.0329648815967528E-15 -5.250213302190098E-16
lhumerus -9.162863940135722 9.358725767416356 88.74535610137085
lradius 60.74857961388996
lwrist -5.553323502836996
lhand -33.92208516905074 17.21267951163705
lfingers 7.125020000000011
lthumb -7.099245680437721 46.833938599610356
rfemur 3.907772467487133 9.01758861593895 38.275965263949544
rtibia 21.403804354083533
rfoot -20.291846004785192 -6.94769673328807
rtoes 8.12001296399125
lfemur -21.807899013850292 2.9281275892733114 -12.93157583467965
ltibia 58.229428032530095
lfoot -1.7608390130474758 -5.853415156890955
ltoes -7.874795543343451
